<?xml version="1.0" encoding="UTF-8"?>
<!DOCTYPE svg PUBLIC "-//W3C//DTD SVG 1.1//EN" "http://www.w3.org/Graphics/SVG/1.1/DTD/svg11.dtd">
<!-- Creator: CorelDRAW X7 -->
<svg xmlns="http://www.w3.org/2000/svg" xml:space="preserve" width="1.6369mm" height="1.6954mm" version="1.1" style="shape-rendering:geometricPrecision; text-rendering:geometricPrecision; image-rendering:optimizeQuality; fill-rule:evenodd; clip-rule:evenodd"
viewBox="0 0 164 170"
 xmlns:xlink="http://www.w3.org/1999/xlink">
 <defs>
  <style type="text/css">
   <![CDATA[
    .fil0 {fill:#FEFEFE}
   ]]>
  </style>
 </defs>
 <g id="Layer_x0020_1">
  <metadata id="CorelCorpID_0Corel-Layer"/>
  <path class="fil0" d="M161 154l-40 -42c10,-12 16,-27 16,-44 0,-37 -31,-68 -69,-68 -37,0 -68,31 -68,68 0,38 31,69 68,69 15,0 28,-4 40,-12l40 42c2,2 4,3 7,3 2,0 4,-1 6,-3 4,-3 4,-9 0,-13zm-93 -136c28,0 51,23 51,50 0,28 -23,51 -51,51 -27,0 -50,-23 -50,-51 0,-27 23,-50 50,-50z"/>
  <g id="_2148413315392">
  </g>
  <g id="_2148413317120">
  </g>
  <g id="_2148413317280">
  </g>
  <g id="_2148413316512">
  </g>
  <g id="_2148413319232">
  </g>
  <g id="_2148413318464">
  </g>
  <g id="_2148413318368">
  </g>
  <g id="_2148413317728">
  </g>
  <g id="_2148413317888">
  </g>
  <g id="_2148413319648">
  </g>
  <g id="_2148413320224">
  </g>
  <g id="_2148413321120">
  </g>
  <g id="_2148413320896">
  </g>
  <g id="_2148413320032">
  </g>
  <g id="_2148413320480">
  </g>
 </g>
</svg>
